HIERARCHY
ROOT Hips
{
  OFFSET 244.016 106.005 -249.221
  CHANNELS 6 Xposition Yposition Zposition Zrotation Xrotation Yrotation
  JOINT ToSpine
  {
    OFFSET -2.69724 7.43032 -0.144315
    CHANNELS 3 Zrotation Xrotation Yrotation
    JOINT Spine
    {
      OFFSET -0.0310711 10.7595 1.96963
      CHANNELS 3 Zrotation Xrotation Yrotation
      JOINT Spine1
      {
        OFFSET 19.9056 3.91189 0.764692
        CHANNELS 3 Zrotation Xrotation Yrotation
        JOINT Neck
        {
          OFFSET 25.9749 7.03908 -0.130764
          CHANNELS 3 Zrotation Xrotation Yrotation
          JOINT Head
          {
            OFFSET 9.52751 0.295786 -0.907742
            CHANNELS 3 Zrotation Xrotation Yrotation
            End Site
            {
              OFFSET 16.4037 0.713936 2.7358
            }
          }
        }
        JOINT LeftShoulder
        {
          OFFSET 17.7449 4.33886 11.7777
          CHANNELS 3 Zrotation Xrotation Yrotation
          JOINT LeftArm
          {
            OFFSET 0.911315 1.27913 9.80584
            CHANNELS 3 Zrotation Xrotation Yrotation
            JOINT LeftForeArm
            {
              OFFSET 28.6126 1.18197 -3.53199
              CHANNELS 3 Zrotation Xrotation Yrotation
              JOINT LeftHand
              {
                OFFSET 27.5088 0.0218783 0.327423
                CHANNELS 3 Zrotation Xrotation Yrotation
                End Site
                {
                  OFFSET 18.6038 -0.000155887 0.382096
                }
              }
            }
          }
        }
        JOINT RightShoulder
        {
          OFFSET 17.1009 2.89543 -12.2328
          CHANNELS 3 Zrotation Xrotation Yrotation
          JOINT RightArm
          {
            OFFSET 1.4228 0.178766 -10.211
            CHANNELS 3 Zrotation Xrotation Yrotation
            JOINT RightForeArm
            {
              OFFSET 28.733 1.87905 2.64907
              CHANNELS 3 Zrotation Xrotation Yrotation
              JOINT RightHand
              {
                OFFSET 27.4588 0.290562 -0.101845
                CHANNELS 3 Zrotation Xrotation Yrotation
                End Site
                {
                  OFFSET 17.8396 -0.255518 -0.000602873
                }
              }
            }
          }
        }
      }
    }
  }
  JOINT LeftUpLeg
  {
    OFFSET -5.61296 -2.22332 -10.2353
    CHANNELS 3 Zrotation Xrotation Yrotation
    JOINT LeftLeg
    {
      OFFSET 2.56703 -44.7417 -7.93097
      CHANNELS 3 Zrotation Xrotation Yrotation
      JOINT LeftFoot
      {
        OFFSET 3.16933 -46.5642 -3.96578
        CHANNELS 3 Zrotation Xrotation Yrotation
        JOINT LeftToeBase
        {
          OFFSET 0.346054 -6.02161 12.8035
          CHANNELS 3 Zrotation Xrotation Yrotation
          End Site
          {
            OFFSET 0.134235 -1.35082 5.13018
          }
        }
      }
    }
  }
  JOINT RightUpLeg
  {
    OFFSET -5.7928 -1.72406 10.6446
    CHANNELS 3 Zrotation Xrotation Yrotation
    JOINT RightLeg
    {
      OFFSET -2.57161 -44.7178 -7.85259
      CHANNELS 3 Zrotation Xrotation Yrotation
      JOINT RightFoot
      {
        OFFSET -3.10148 -46.5936 -4.03391
        CHANNELS 3 Zrotation Xrotation Yrotation
        JOINT RightToeBase
        {
          OFFSET -0.0828122 -6.13587 12.8035
          CHANNELS 3 Zrotation Xrotation Yrotation
          End Site
          {
            OFFSET -0.131328 -1.35082 5.13018
          }
        }
      }
    }
  }
}
MOTION
Frames:	8
Frame Time:	0.0333333
-13.6415 106.033 -25.6363 71.7278 2.32696 5.26087 -70.1915 0 88.8779 96.6396 67.2876 -18.9127 0.507303 14.2038 10.2902 -122.429 25.8065 148.056 -165.082 72.8453 -174.949 1.60558 -7.0784 -32.545 -99.9055 42.222 -92.2705 -13.7012 49.761 7.62118 -2.98243 -0.0287389 3.37434 1.07382 -3.52876 44.4862 -61.377 -37.6375 99.1022 4.3589 -3.23597 24.1996 8.37455 -0.168117 -2.84935 -57.8715 -4.22048 92.0709 5.18035 25.0507 -18.4972 7.92027 2.96746 -1.05628 -12.359 -27.5013 -4.48155 -40.6666 12.1802 86.9041 -0.0289233 22.5787 4.78224 -5.07319 -0.804418 0.806924 0.273248 8.29414 5.71285 
-15.203 106.214 -25.3966 71.9167 -2.68226 3.21154 -70.1915 0 88.8779 97.7924 67.2358 -20.1991 0.403943 14.457 9.65356 -123.153 26.5211 148.704 -166.334 73.2202 -173.513 1.5211 -7.47766 -32.4534 -101.578 43.5575 -90.2364 -12.661 47.5781 7.10096 1.90425 0.065743 4.60602 1.01619 -3.36407 44.169 -59.129 -37.3266 101.579 4.59079 -5.53562 22.6973 6.51004 -0.174571 -3.76523 -57.705 -3.5393 94.5319 4.07633 23.9532 -15.1852 7.71856 2.4092 -1.02978 -11.2389 -25.1585 -4.62464 -41.0384 11.4913 86.9344 -0.085134 22.5244 4.58429 -4.89964 0.15726 0.75956 0.809121 11.0608 4.92725 
-16.5441 106.267 -25.1661 71.6795 -8.03169 0.882455 -70.1915 0 88.8779 97.7896 67.3356 -20.7746 0.186938 14.6259 9.52731 -124.241 27.0834 149.242 -166.171 73.3669 -174.241 1.45397 -7.87757 -33.2217 -101.277 43.7425 -89.9614 -13.0175 46.1754 7.316 6.20588 0.166108 4.46469 0.986692 -3.26406 44.184 -60.2926 -36.7431 101.993 4.08681 -9.0816 20.8335 4.54874 -0.119411 -3.85982 -57.4855 -3.29303 95.6358 2.82533 22.8979 -10.0304 7.99056 2.46008 -1.06796 -10.8616 -24.6211 -3.91993 -41.4285 10.324 86.635 0.179935 22.8319 4.78428 -5.51054 -0.0260544 0.839066 0.501622 4.11714 1.29276 
-17.7187 106.375 -24.8786 71.0189 -13.3531 -1.36961 -70.1915 0 88.8779 95.3293 67.5829 -19.051 0.957915 14.5809 9.81999 -124.954 27.5272 149.865 -168.245 73.5392 -171.815 1.44291 -7.94628 -33.4087 -99.372 44.6653 -91.6385 -14.2576 45.9976 8.06743 8.95431 0.247967 4.65865 0.949958 -3.17744 43.7175 -61.5811 -36.6644 102.598 2.03662 -7.59783 19.5386 4.32748 -0.139191 -4.68035 -57.6224 -3.09142 96.0433 1.80704 20.9104 -4.63485 8.78412 3.51871 -1.18431 -11.2522 -25.7677 -3.01543 -41.263 8.63932 85.2757 0.7637 23.6999 2.49174 -5.65004 0.107669 0.853078 -0.175014 0.134618 1.35252 
-18.7165 106.35 -24.6362 70.2509 -19.2617 -3.65007 -70.1915 0 88.8779 93.8198 67.7798 -17.2567 1.21981 14.7879 9.42543 -125.028 27.7865 150.583 -170.917 73.6248 -169.355 1.44225 -7.95363 -33.4566 -97.0797 45.5266 -93.6524 -15.0331 45.8644 7.99554 10.9415 0.293557 4.6004 0.898446 -2.98742 43.922 -65.4829 -36.5147 100.954 1.47803 -10.306 18.302 3.80141 -0.136187 -5.28742 -57.4515 -2.84494 96.2265 1.43487 20.0337 1.18808 8.93805 4.68384 -1.21359 -12.0831 -27.815 -2.31859 -41.2384 6.91359 82.9699 1.38917 25.005 -0.342319 -5.54809 0.00460502 0.842927 -0.177737 -2.48537 -2.41131 
-19.5587 106.258 -24.3824 69.5568 -25.4898 -6.28909 -70.1915 0 88.8779 93.5501 68.0107 -16.8999 1.02177 15.0507 9.24639 -124.66 27.7171 151.249 -171.018 73.4492 -168.721 1.50624 -7.66907 -33.5877 -94.4841 46.0006 -95.4976 -13.8715 44.2989 5.22297 10.5831 0.203219 3.75019 0.800919 -2.62948 44.3889 -66.8384 -36.0538 99.9479 0.574143 -9.18225 17.8134 5.29178 -0.205012 -5.40081 -57.9128 -2.57282 96.578 0.80402 19.0835 6.96127 9.69509 5.60545 -1.34578 -12.9336 -29.9917 -1.53135 -41.1779 4.12902 78.5848 1.77991 27.4304 -2.0878 -6.18157 0.728151 0.907473 -0.704436 -6.05056 -4.74817 
-20.1167 106.191 -24.0009 68.531 -31.5674 -8.70401 -70.1915 0 88.8779 92.4467 68.2206 -14.8927 1.59573 15.3035 8.83478 -124.346 27.7545 151.768 -169.958 73.3854 -168.913 1.57195 -7.38055 -33.7278 -93.3121 46.865 -96.8191 -11.7726 44.191 2.02607 6.73138 0.114301 3.42083 0.748738 -2.43276 44.8148 -67.3248 -35.3225 99.5218 -0.179199 -7.54391 17.5921 6.90699 -0.241963 -4.77666 -58.2033 -1.90344 96.9715 0.401281 18.8465 12.1566 10.5352 6.97828 -1.51298 -14.4209 -33.4858 -0.942782 -41.6202 0.829354 72.0558 1.80696 29.6431 -2.01434 -6.493 1.1485 0.941138 -0.683392 -6.50385 -6.25601 
-20.5601 106.056 -23.7548 66.7561 -37.3864 -11.8641 -70.1915 0 88.8779 92.4159 68.2773 -13.4095 1.22711 15.5321 8.24448 -124.004 27.5551 153.313 -169.161 72.8312 -168.13 1.66195 -7.0729 -34.5826 -89.3697 46.4746 -100.233 -10.0065 41.7522 -1.57658 4.81085 0.0814229 3.32437 0.721971 -2.4048 43.6727 -67.0695 -36.1988 99.8166 -0.0171661 -8.09107 17.6004 8.32803 -0.350234 -5.56664 -58.0664 -1.59468 97.2911 -0.026475 18.9654 17.4597 10.7408 8.143 -1.57394 -15.7883 -36.1478 -1.33041 -41.4414 -2.89219 65.8469 1.09264 32.3218 -0.920892 -6.93069 1.69569 0.992732 -0.984846 -8.02408 -7.20849 
